<svg width="749" height="755" viewBox="0 0 749 755" fill="none" xmlns="http://www.w3.org/2000/svg">
<path d="M351.989 686.122C355.967 686.416 359.013 689.897 358.673 693.872C358.433 697.761 354.913 700.711 350.931 700.463C347.095 700.134 344.045 696.699 344.332 692.813C344.626 688.835 348.149 685.839 351.989 686.122ZM356.024 729.77C355.784 733.659 352.264 736.609 348.282 736.362C344.446 736.032 341.397 732.598 341.684 728.712C341.977 724.734 345.501 721.738 349.34 722.021C353.319 722.314 356.364 725.795 356.024 729.77Z" fill="black"/>
<path d="M373.41 661C530.259 661 657.41 533.849 657.41 377C657.41 366.5 657.41 353.5 655.039 336.995L598.41 377C598.41 501.816 497.227 603 372.41 603C247.594 603 146.41 501.816 146.41 377C146.41 252.184 247.594 151 372.41 151L413.91 95.8658C400.682 93.9772 387.16 93 373.41 93C216.561 93 89.4102 220.151 89.4102 377C89.4102 533.849 216.561 661 373.41 661Z" fill="black"/>
<path d="M485.414 0V110C527.914 146 519.414 196 487.414 262C553.414 230 597.914 229 639.414 264H748.914C711.914 213 653.414 176 562.414 187C575.414 110 541.414 34.5 485.414 0Z" fill="#D7423C"/>
<path d="M722.487 367.22C728.286 366.617 731.625 361.747 731.579 354.51C731.625 346.856 727.915 342.311 722.858 342.264C717.199 342.218 714.88 348.202 713.581 353.768L711.911 360.077C709.592 370.096 704.304 379.745 692.614 379.745C680.832 379.745 672.761 370.421 672.761 354.325C672.761 338.692 680.275 328.766 693.542 328.255L693.542 340.13C686.538 340.687 683.105 346.578 683.059 354.232C683.105 362.164 686.955 367.638 692.707 367.684C697.995 367.638 700.222 362.813 702.077 355.531L704.025 347.923C706.901 336.883 712.468 330.018 722.116 330.018C733.991 330.018 741.877 340.548 741.877 354.696C741.877 368.937 733.852 378.631 722.487 378.817L722.487 367.22Z" fill="black"/>
<path d="M674.692 548.212C682.52 550.647 689.605 547.055 693.359 539.805C698.415 530.043 694.503 519.241 680.971 512.284C667.276 505.139 656.38 508.324 651.345 518.045C647.676 525.13 648.665 532.903 654.921 537.972L649.331 548.764C638.734 541.185 634.475 527.017 641.792 512.889C649.942 497.154 667.346 491.489 686.56 501.493C705.859 511.435 711.168 529.021 703.083 544.632C696.256 557.813 683.326 564.019 669.103 559.003L674.692 548.212Z" fill="black"/>
<path d="M622.416 549.915L674.432 592.411L646.786 626.25L638.955 619.852L658.97 595.353L644.745 583.731L626.197 606.434L618.366 600.036L636.914 577.333L622.688 565.711L602.556 590.354L594.653 583.898L622.416 549.915Z" fill="black"/>
<path d="M547.116 704.938C535.499 711.052 520.266 710.315 508.643 688.704C497.718 668.298 500.632 651.531 515.191 643.736C526.6 637.628 538.303 640.518 544.866 649.632L534.315 655.281C530.734 651.147 525.496 650.11 520.139 652.979C511.551 657.576 510.776 667.725 517.504 680.487L518.158 680.137C518.384 673.386 522.468 667.254 528.992 663.813C539.561 658.102 552.054 661.779 558.094 672.962C564.29 684.535 560.287 697.991 547.116 704.938ZM547.838 678.769C544.422 672.389 537.007 669.94 530.382 673.487C523.798 677.012 521.574 685.043 524.899 691.155C528.117 697.167 535.789 699.9 542.436 696.394C549.08 692.784 551.313 685.064 547.838 678.769Z" fill="black"/>
<path d="M295.914 739.985L308.589 674.024L320.432 676.299L307.758 742.261L295.914 739.985Z" fill="black"/>
<path d="M253.723 100.062L231.714 36.6024L243.109 32.6505L261.774 86.4685L289.822 76.7406L293.166 86.3823L253.723 100.062Z" fill="black"/>
<path d="M100.869 237.246L43.6914 202L56.933 180.519C65.0143 167.409 76.6673 164.948 87.5901 171.626C95.3447 176.461 98.9191 183.569 97.5057 191.961L127.79 193.573L120.731 205.025L92.8901 203.338L86.2693 214.079L107.198 226.98L100.869 237.246ZM77.6611 208.772L83.6004 199.137C88.4107 191.422 87.2358 185.903 81.1153 182.13C75.0343 178.381 69.3384 179.666 64.5676 187.405L58.6283 197.04L77.6611 208.772Z" fill="black"/>
<path d="M29.0218 236.193L33.3181 224.825L74.3665 240.337C87.8449 245.481 93.2502 259.127 87.4616 274.444C81.6403 289.848 68.5935 296.422 55.0824 291.366L14.0339 275.853L18.2974 264.572L58.3912 279.723C66.3483 282.681 74.0718 279.302 77.3948 270.64C80.631 261.945 77.0563 254.346 69.1156 251.345L29.0218 236.193Z" fill="black"/>
<path d="M334.318 12.6192L346.338 10.8212L352.83 54.2201C354.918 68.4945 345.645 79.872 329.451 82.2945C313.165 84.7308 301.06 76.5514 298.879 62.2907L292.387 18.8918L304.315 17.1075L310.656 59.4971C311.958 67.8856 318.676 72.9779 327.858 71.6513C337.027 70.2328 341.915 63.4042 340.659 55.0089L334.318 12.6192Z" fill="black"/>
<path d="M369.531 77V9.83203H395.229C409.795 9.83203 416.985 17.2539 417.031 27.2734C416.985 35.4375 411.836 39.9834 405.249 41.5605V42.21C412.393 42.5811 419.629 48.5186 419.629 58.7236C419.629 69.1606 412.068 77 396.714 77H369.531ZM381.592 66.8877H394.858C403.672 66.8877 407.336 63.1304 407.383 57.7959C407.336 51.7656 402.651 47.1733 395.137 47.127H381.592V66.8877ZM381.592 38.4062H393.745C400.1 38.4062 404.924 34.7417 404.971 28.7578C404.924 23.6089 401.213 19.8516 394.023 19.8516H381.592V38.4062Z" fill="black"/>
<path d="M10.7872 349.663L0.80808 348.027L9.46704 295.202L19.4462 296.837L16.0996 317.253L72.4039 326.483L70.453 338.384L14.1487 329.155L10.7872 349.663Z" fill="black"/>
<path d="M217.659 714.04L241.489 651.241L251.55 655.059L265.009 709.285L265.53 709.482L281.822 666.547L293.098 670.825L269.268 733.624L259.033 729.74L245.748 675.581L245.141 675.35L228.848 718.286L217.659 714.04Z" fill="black"/>
<path d="M2.01896 374.286L69.074 370.393L69.6978 381.136L25.6966 415.566L25.7289 416.122L71.5745 413.46L72.2736 425.5L5.21852 429.393L4.58399 418.464L48.5959 384.22L48.5583 383.572L2.71265 386.233L2.01896 374.286Z" fill="black"/>
<path d="M85.9577 481.561L20.929 498.378L9.98864 456.073L19.7789 453.541L27.6996 484.169L45.4837 479.57L38.1436 451.188L47.9339 448.656L55.2739 477.038L73.058 472.439L65.0908 441.631L74.9708 439.076L85.9577 481.561Z" fill="black"/>
<path d="M210.675 71.5185C205.268 65.3556 197.351 64.7222 190.364 68.9463C180.957 74.6344 178.656 85.891 186.568 98.887C194.52 112.129 205.477 115.099 214.845 109.435C221.673 105.307 224.886 98.1604 222.195 90.5722L232.595 84.284C237.68 96.2793 233.918 110.588 220.302 118.82C205.139 127.988 187.336 123.737 176.168 105.175C164.896 86.6218 169.545 68.8498 184.589 59.7536C197.292 52.0734 211.561 53.5286 221.075 65.2304L210.675 71.5185Z" fill="black"/>
<path d="M136.626 185.867L88.532 138.979L119.035 107.691L126.276 114.75L104.192 137.402L117.345 150.225L137.81 129.234L145.05 136.293L124.585 157.284L137.738 170.107L159.952 147.322L167.259 154.446L136.626 185.867Z" fill="black"/>
<path d="M160.106 597.257L168.783 606.797L103.175 634.489L93.1878 623.508L126.897 560.744L135.574 570.284L127.065 585.61L144.075 604.312L160.106 597.257ZM134.684 608.465L122.044 594.567L108.152 619.554L108.526 619.966L134.684 608.465Z" fill="black"/>
<path d="M49.2533 562.575L89.0396 523.492L88.7112 522.827L33.4474 530.545L27.5767 518.648L98.32 510.223L104.889 523.534L55.1241 574.472L49.2533 562.575Z" fill="black"/>
<path d="M226.211 644.751L188.687 700.459L178.684 693.722L194.595 670.099L168.665 652.633L152.753 676.255L142.673 669.466L180.197 613.757L190.277 620.547L174.314 644.246L200.245 661.712L216.208 638.013L226.211 644.751Z" fill="black"/>
<path d="M474.635 734.909C461.936 738.238 447.265 734.075 440.831 710.395C434.804 688.046 441.435 672.373 457.379 668.073C469.874 664.703 480.62 670.165 484.952 680.527L473.397 683.644C470.843 678.807 465.975 676.613 460.108 678.195C450.703 680.731 447.653 690.442 451.32 704.395L452.036 704.202C453.784 697.677 459.148 692.627 466.281 690.751C477.869 687.578 489.206 693.985 492.56 706.245C495.978 718.919 489.036 731.121 474.635 734.909ZM481.257 709.581C479.372 702.595 472.704 698.532 465.448 700.489C458.238 702.433 454.254 709.753 456.111 716.459C457.886 723.043 464.741 727.44 472.009 725.528C479.297 723.514 483.218 716.499 481.257 709.581Z" fill="black"/>
<path d="M418.873 676.642L392.634 734.631L392.658 735.095L426.384 733.391L426.895 743.49L380.66 745.826L380.14 735.541L406.365 677.274L418.873 676.642Z" fill="black"/>
<path d="M592.883 677.11L550.943 624.646L560.435 617.057L595.019 660.318L595.309 660.087L601.299 642.47L608.193 651.094L601.941 669.869L592.883 677.11Z" fill="black"/>
<path d="M723.574 492.219L658.276 476.479L660.798 466.017L712.9 445.843L713.03 445.302L668.386 434.54L671.212 422.816L736.51 438.556L733.944 449.198L681.887 469.192L681.735 469.823L726.379 480.585L723.574 492.219Z" fill="black"/>
<path d="M739.611 412.068L672.604 407.408L673.441 395.377L740.447 400.036L739.611 412.068Z" fill="black"/>
</svg>
